<?xml version="1.0" encoding="UTF-8"?>
<!DOCTYPE svg PUBLIC "-//W3C//DTD SVG 1.1//EN" "http://www.w3.org/Graphics/SVG/1.1/DTD/svg11.dtd">
<svg xmlns="http://www.w3.org/2000/svg" version="1.1" width="1500px" height="1087px" style="shape-rendering:geometricPrecision; text-rendering:geometricPrecision; image-rendering:optimizeQuality; fill-rule:evenodd; clip-rule:evenodd" xmlns:xlink="http://www.w3.org/1999/xlink">
<g><path style="opacity:1" fill="#fefefe" d="M -0.5,-0.5 C 499.5,-0.5 999.5,-0.5 1499.5,-0.5C 1499.5,361.833 1499.5,724.167 1499.5,1086.5C 999.5,1086.5 499.5,1086.5 -0.5,1086.5C -0.5,724.167 -0.5,361.833 -0.5,-0.5 Z"/></g>
<g><path style="opacity:1" fill="#1f73b8" d="M 1068.5,316.5 C 1067.17,316.5 1065.83,316.5 1064.5,316.5C 1064.5,256.5 1064.5,196.5 1064.5,136.5C 1098.5,121.246 1134.17,111.413 1171.5,107C 1192.89,104.562 1212.89,108.562 1231.5,119C 1244.06,131.67 1248.22,146.837 1244,164.5C 1241.24,180.373 1235.9,195.373 1228,209.5C 1205.2,246.479 1174.37,274.645 1135.5,294C 1114.21,304.56 1091.87,312.06 1068.5,316.5 Z"/></g>
<g><path style="opacity:1" fill="#2073b9" d="M 327.5,106.5 C 338.18,106.667 348.846,107.167 359.5,108C 398.188,115.339 435.522,127.005 471.5,143C 556.364,181.739 633.031,232.572 701.5,295.5C 703.167,294.5 704.5,293.167 705.5,291.5C 698.101,282.592 697.601,273.259 704,263.5C 705.771,262.696 707.271,261.529 708.5,260C 695.925,255.015 692.758,246.515 699,234.5C 707.12,224.449 716.787,222.783 728,229.5C 749.291,210.87 770.624,210.87 792,229.5C 805.312,222.131 815.645,225.131 823,238.5C 825.48,251.203 820.314,258.537 807.5,260.5C 816.517,262.516 820.684,268.183 820,277.5C 777.738,313.743 742.072,355.41 713,402.5C 705.812,416.521 699.312,430.855 693.5,445.5C 691.962,438.593 690.962,431.593 690.5,424.5C 694.063,414.653 696.896,404.653 699,394.5C 668.655,457.271 618.489,485.104 548.5,478C 542.742,477.515 537.075,476.515 531.5,475C 530.572,474.612 529.905,473.945 529.5,473C 541.155,447.966 534.822,428.966 510.5,416C 488.265,410.205 471.765,417.372 461,437.5C 453.912,430.416 447.578,422.749 442,414.5C 441.333,413.167 441.333,411.833 442,410.5C 462.602,385.885 488.435,378.052 519.5,387C 547.019,397.834 562.685,418.001 566.5,447.5C 574.833,443.333 583.167,439.167 591.5,435C 592.043,428.641 590.876,422.475 588,416.5C 569.94,377.036 539.107,356.369 495.5,354.5C 471.446,355.368 450.446,363.701 432.5,379.5C 431.41,372.507 432.577,365.841 436,359.5C 449.712,338.642 469.045,327.309 494,325.5C 558.09,328.102 600.257,359.769 620.5,420.5C 627.743,416.711 635.076,413.211 642.5,410C 643.728,409.221 644.728,408.221 645.5,407C 628.546,355.713 594.546,321.38 543.5,304C 504.546,293.235 466.546,295.735 429.5,311.5C 417.723,308.555 406.389,304.388 395.5,299C 438.299,270.863 484.965,261.863 535.5,272C 590.533,285.393 632.033,316.559 660,365.5C 664.961,374.749 668.794,384.416 671.5,394.5C 679.888,391.143 688.221,387.477 696.5,383.5C 696.833,382.667 697.167,381.833 697.5,381C 664.538,298.49 603.871,251.49 515.5,240C 460.514,236.612 411.014,251.112 367,283.5C 326.201,260.372 297.201,227.039 280,183.5C 276.569,173.11 274.736,162.443 274.5,151.5C 274.964,131.404 284.631,117.904 303.5,111C 311.512,108.762 319.512,107.262 327.5,106.5 Z"/></g>
<g><path style="opacity:1" fill="#559ace" d="M 1064.5,136.5 C 1064.5,196.5 1064.5,256.5 1064.5,316.5C 1065.83,316.5 1067.17,316.5 1068.5,316.5C 1067.08,317.451 1065.41,317.784 1063.5,317.5C 1063.17,256.998 1063.5,196.664 1064.5,136.5 Z"/></g>
<g><path style="opacity:1" fill="#2171c0" d="M 1068.5,143.5 C 1069.83,171.159 1070.5,199.159 1070.5,227.5C 1070.17,255.5 1069.83,283.5 1069.5,311.5C 1068.5,255.504 1068.17,199.504 1068.5,143.5 Z"/></g>
<g><path style="opacity:1" fill="#666666" d="M 1035.5,149.5 C 1036.5,250.999 1036.83,352.665 1036.5,454.5C 1029.31,459.261 1021.65,463.261 1013.5,466.5C 1011.83,378.005 1010.83,289.338 1010.5,200.5C 1002.02,199.507 993.349,199.174 984.5,199.5C 984.667,291.501 984.5,383.501 984,475.5C 975.275,477.067 966.441,478.067 957.5,478.5C 957.5,404.5 957.5,330.5 957.5,256.5C 948.833,256.5 940.167,256.5 931.5,256.5C 930.501,329.665 930.167,402.998 930.5,476.5C 928.5,476.5 926.5,476.5 924.5,476.5C 917.701,475.8 911.034,474.467 904.5,472.5C 904.5,415.167 904.5,357.833 904.5,300.5C 895.833,300.5 887.167,300.5 878.5,300.5C 877.833,353.5 877.167,406.5 876.5,459.5C 867.764,454.127 859.764,447.794 852.5,440.5C 851.5,413.175 851.167,385.841 851.5,358.5C 842.833,358.5 834.167,358.5 825.5,358.5C 825.667,393.502 825.5,428.502 825,463.5C 821.94,486.823 818.94,510.156 816,533.5C 812.739,554.392 802.072,570.059 784,580.5C 783.667,587.167 783.333,593.833 783,600.5C 773.575,605.425 766.741,612.758 762.5,622.5C 757.652,612.152 749.819,605.152 739,601.5C 738.667,594.833 738.333,588.167 738,581.5C 728.078,576.579 720.411,569.245 715,559.5C 694.588,519.504 693.255,478.837 711,437.5C 729.094,397.761 753.094,362.094 783,330.5C 856.066,254.562 940.232,194.229 1035.5,149.5 Z"/></g>
<g><path style="opacity:1" fill="#7c7c7c" d="M 1035.5,149.5 C 1035.56,148.957 1035.89,148.624 1036.5,148.5C 1037.83,250.666 1037.83,352.666 1036.5,454.5C 1036.83,352.665 1036.5,250.999 1035.5,149.5 Z"/></g>
<g><path style="opacity:1" fill="#898989" d="M 1010.5,200.5 C 1010.83,289.338 1011.83,378.005 1013.5,466.5C 1012.79,467.404 1011.79,467.737 1010.5,467.5C 1010.5,378.5 1010.5,289.5 1010.5,200.5 Z"/></g>
<g><path style="opacity:1" fill="#838383" d="M 931.5,256.5 C 931.5,330.167 931.5,403.833 931.5,477.5C 928.941,477.802 926.607,477.468 924.5,476.5C 926.5,476.5 928.5,476.5 930.5,476.5C 930.167,402.998 930.501,329.665 931.5,256.5 Z"/></g>
<g><path style="opacity:1" fill="#7b7b7b" d="M 878.5,300.5 C 878.833,353.837 878.5,407.171 877.5,460.5C 876.893,460.376 876.56,460.043 876.5,459.5C 877.167,406.5 877.833,353.5 878.5,300.5 Z"/></g>
<g><path style="opacity:1" fill="#559ace" d="M 1064.5,339.5 C 1064.17,370.005 1064.5,400.338 1065.5,430.5C 1065.44,431.043 1065.11,431.376 1064.5,431.5C 1064.17,416 1063.83,400.5 1063.5,385C 1063.49,369.094 1063.83,353.927 1064.5,339.5 Z"/></g>
<g><path style="opacity:1" fill="#2273b9" d="M 1064.5,339.5 C 1083.72,351.62 1091.22,368.954 1087,391.5C 1083.37,406.588 1076.2,419.588 1065.5,430.5C 1064.5,400.338 1064.17,370.005 1064.5,339.5 Z"/></g>
<g><path style="opacity:1" fill="#777777" d="M 119.5,658.5 C 163.33,657.501 207.33,657.168 251.5,657.5C 251.828,668.346 251.494,679.013 250.5,689.5C 250.5,679.167 250.5,668.833 250.5,658.5C 206.833,658.5 163.167,658.5 119.5,658.5 Z"/></g>
<g><path style="opacity:1" fill="#666666" d="M 119.5,658.5 C 163.167,658.5 206.833,658.5 250.5,658.5C 250.5,668.833 250.5,679.167 250.5,689.5C 212.499,689.333 174.499,689.5 136.5,690C 127.231,690.702 120.731,695.202 117,703.5C 116.333,738.167 116.333,772.833 117,807.5C 120.532,818.868 128.365,824.201 140.5,823.5C 176.996,824.498 213.663,824.832 250.5,824.5C 250.5,835.167 250.5,845.833 250.5,856.5C 207.832,856.667 165.165,856.5 122.5,856C 105.713,854.856 91.8797,848.023 81,835.5C 77.2742,829.323 74.9408,822.656 74,815.5C 73.3333,774.833 73.3333,734.167 74,693.5C 76.8034,677.368 85.9701,666.868 101.5,662C 107.326,659.876 113.326,658.709 119.5,658.5 Z"/></g>
<g><path style="opacity:1" fill="#666666" d="M 487.5,657.5 C 530.833,657.5 574.167,657.5 617.5,657.5C 617.5,668.167 617.5,678.833 617.5,689.5C 580.165,689.333 542.832,689.5 505.5,690C 495.103,689.603 487.936,694.103 484,703.5C 483.333,738.5 483.333,773.5 484,808.5C 486.36,816.858 491.86,821.691 500.5,823C 539.499,823.5 578.499,823.667 617.5,823.5C 617.5,834.5 617.5,845.5 617.5,856.5C 574.165,856.667 530.832,856.5 487.5,856C 470.849,854.472 457.349,847.305 447,834.5C 444,829.166 442,823.499 441,817.5C 440.333,775.833 440.333,734.167 441,692.5C 444.122,677.377 452.956,667.211 467.5,662C 474.233,660.147 480.899,658.647 487.5,657.5 Z"/></g>
<g><path style="opacity:1" fill="#666666" d="M 783.5,657.5 C 794.322,656.872 804.322,659.372 813.5,665C 816.453,668.408 819.287,671.908 822,675.5C 850.94,736.015 880.44,796.182 910.5,856C 894.837,856.5 879.17,856.667 863.5,856.5C 856.441,840.715 849.108,825.048 841.5,809.5C 806.833,808.167 772.167,808.167 737.5,809.5C 730.151,824.864 722.817,840.198 715.5,855.5C 700.167,856.833 684.833,856.833 669.5,855.5C 699,795.167 728.5,734.833 758,674.5C 764.139,665.188 772.639,659.521 783.5,657.5 Z"/></g>
<g><path style="opacity:1" fill="#666666" d="M 959.5,657.5 C 1008.5,657.333 1057.5,657.5 1106.5,658C 1122.18,658.431 1135.68,663.931 1147,674.5C 1150.11,678.387 1152.44,682.72 1154,687.5C 1155.15,709.785 1155.65,732.118 1155.5,754.5C 1155.63,777.534 1155.13,800.534 1154,823.5C 1148.59,839.239 1137.76,849.073 1121.5,853C 1116.24,854.385 1110.91,855.385 1105.5,856C 1056.83,856.5 1008.17,856.667 959.5,856.5C 959.5,790.167 959.5,723.833 959.5,657.5 Z"/></g>
<g><path style="opacity:1" fill="#666666" d="M 1319.5,657.5 C 1330.31,656.869 1340.31,659.369 1349.5,665C 1352.45,668.408 1355.29,671.908 1358,675.5C 1386.89,735.622 1416.06,795.622 1445.5,855.5C 1430.18,856.499 1414.85,856.833 1399.5,856.5C 1392.46,840.745 1385.12,825.079 1377.5,809.5C 1342.83,808.167 1308.17,808.167 1273.5,809.5C 1266.17,824.833 1258.83,840.167 1251.5,855.5C 1236.17,856.833 1220.83,856.833 1205.5,855.5C 1235.33,794.5 1265.17,733.5 1295,672.5C 1301.11,664.031 1309.28,659.031 1319.5,657.5 Z"/></g>
<g><path style="opacity:1" fill="#797979" d="M 326.5,657.5 C 326.5,723.5 326.5,789.5 326.5,855.5C 340.167,855.5 353.833,855.5 367.5,855.5C 367.5,789.5 367.5,723.5 367.5,657.5C 368.499,723.665 368.832,789.998 368.5,856.5C 354.167,856.5 339.833,856.5 325.5,856.5C 325.168,789.998 325.501,723.665 326.5,657.5 Z"/></g>
<g><path style="opacity:1" fill="#656565" d="M 326.5,657.5 C 340.167,657.5 353.833,657.5 367.5,657.5C 367.5,723.5 367.5,789.5 367.5,855.5C 353.833,855.5 340.167,855.5 326.5,855.5C 326.5,789.5 326.5,723.5 326.5,657.5 Z"/></g>
<g><path style="opacity:1" fill="#fefefe" d="M 1002.5,689.5 C 1032.17,689.333 1061.84,689.5 1091.5,690C 1100.24,690.617 1107.08,694.451 1112,701.5C 1113.65,736.773 1113.98,772.106 1113,807.5C 1109.02,817.636 1101.52,822.969 1090.5,823.5C 1061.17,823.5 1031.83,823.5 1002.5,823.5C 1002.5,778.833 1002.5,734.167 1002.5,689.5 Z"/></g>
<g><path style="opacity:1" fill="#b8b8b8" d="M 1002.5,689.5 C 1002.5,734.167 1002.5,778.833 1002.5,823.5C 1031.83,823.5 1061.17,823.5 1090.5,823.5C 1061,824.498 1031.34,824.831 1001.5,824.5C 1001.17,779.33 1001.5,734.33 1002.5,689.5 Z"/></g>
<g><path style="opacity:1" fill="#fdfdfd" d="M 825.5,776.5 C 801.5,777.833 777.5,777.833 753.5,776.5C 764.517,750.282 776.017,724.282 788,698.5C 800.806,724.442 813.306,750.442 825.5,776.5 Z"/></g>
<g><path style="opacity:1" fill="#fdfdfd" d="M 1361.5,776.5 C 1337.5,777.833 1313.5,777.833 1289.5,776.5C 1300.21,750.077 1311.71,724.077 1324,698.5C 1336.78,724.4 1349.28,750.4 1361.5,776.5 Z"/></g>
<g><path style="opacity:1" fill="#b9b9b9" d="M 753.5,776.5 C 777.5,777.833 801.5,777.833 825.5,776.5C 826.043,776.56 826.376,776.893 826.5,777.5C 801.833,778.833 777.167,778.833 752.5,777.5C 752.624,776.893 752.957,776.56 753.5,776.5 Z"/></g>
<g><path style="opacity:1" fill="#b9b9b9" d="M 1289.5,776.5 C 1313.5,777.833 1337.5,777.833 1361.5,776.5C 1362.04,776.56 1362.38,776.893 1362.5,777.5C 1337.83,778.833 1313.17,778.833 1288.5,777.5C 1288.62,776.893 1288.96,776.56 1289.5,776.5 Z"/></g>
<g><path style="opacity:1" fill="#a8a8a8" d="M 140.5,823.5 C 177.5,823.5 214.5,823.5 251.5,823.5C 251.828,834.679 251.495,845.679 250.5,856.5C 250.5,845.833 250.5,835.167 250.5,824.5C 213.663,824.832 176.996,824.498 140.5,823.5 Z"/></g>
<g><path style="opacity:1" fill="#7daed7" d="M 268.5,927.5 C 280.989,926.505 293.656,926.171 306.5,926.5C 306.815,930.371 306.482,934.038 305.5,937.5C 305.5,934.167 305.5,930.833 305.5,927.5C 293.167,927.5 280.833,927.5 268.5,927.5 Z"/></g>
<g><path style="opacity:1" fill="#71a5d0" d="M 1227.5,927.5 C 1239.99,926.505 1252.66,926.171 1265.5,926.5C 1265.81,930.371 1265.48,934.038 1264.5,937.5C 1264.5,937.167 1264.5,936.833 1264.5,936.5C 1264.5,933.5 1264.5,930.5 1264.5,927.5C 1252.17,927.5 1239.83,927.5 1227.5,927.5 Z"/></g>
<g><path style="opacity:1" fill="#2474b9" d="M 268.5,927.5 C 280.833,927.5 293.167,927.5 305.5,927.5C 305.5,930.833 305.5,934.167 305.5,937.5C 294.162,937.333 282.828,937.5 271.5,938C 270.069,938.465 268.903,939.299 268,940.5C 267.502,943.817 267.335,947.15 267.5,950.5C 279.5,950.5 291.5,950.5 303.5,950.5C 303.5,953.833 303.5,957.167 303.5,960.5C 291.5,960.5 279.5,960.5 267.5,960.5C 267.187,964.042 267.521,967.375 268.5,970.5C 268.953,971.458 269.619,972.292 270.5,973C 282.341,973.169 294.007,973.669 305.5,974.5C 305.5,977.5 305.5,980.5 305.5,983.5C 292.167,983.5 278.833,983.5 265.5,983.5C 260.742,982.586 257.242,979.919 255,975.5C 254.333,962.167 254.333,948.833 255,935.5C 258.146,930.515 262.646,927.848 268.5,927.5 Z"/></g>
<g><path style="opacity:1" fill="#508ec2" d="M 989.5,979.5 C 989.5,962.5 989.5,945.5 989.5,928.5C 986.167,928.5 982.833,928.5 979.5,928.5C 979.833,942.516 979.499,956.516 978.5,970.5C 977.893,970.376 977.56,970.043 977.5,969.5C 978.496,955.677 978.829,941.677 978.5,927.5C 982.5,927.5 986.5,927.5 990.5,927.5C 990.83,945.008 990.497,962.341 989.5,979.5 Z"/></g>
<g><path style="opacity:1" fill="#2474b9" d="M 1227.5,927.5 C 1239.83,927.5 1252.17,927.5 1264.5,927.5C 1264.5,930.5 1264.5,933.5 1264.5,936.5C 1252.5,936.5 1240.5,936.5 1228.5,936.5C 1228.72,935.325 1228.39,934.325 1227.5,933.5C 1222.2,936.118 1222.2,937.452 1227.5,937.5C 1226.2,941.964 1226.2,946.298 1227.5,950.5C 1239.5,950.5 1251.5,950.5 1263.5,950.5C 1263.5,953.833 1263.5,957.167 1263.5,960.5C 1251.5,960.5 1239.5,960.5 1227.5,960.5C 1227.33,964.182 1227.5,967.848 1228,971.5C 1229.11,972.305 1230.28,972.972 1231.5,973.5C 1242.32,974.495 1253.32,974.828 1264.5,974.5C 1264.5,977.5 1264.5,980.5 1264.5,983.5C 1251.17,983.5 1237.83,983.5 1224.5,983.5C 1219.71,982.546 1216.21,979.879 1214,975.5C 1213.33,962.833 1213.33,950.167 1214,937.5C 1216.22,931.135 1220.72,927.802 1227.5,927.5 Z"/></g>
<g><path style="opacity:1" fill="#3883c4" d="M 1264.5,936.5 C 1264.5,936.833 1264.5,937.167 1264.5,937.5C 1252.83,937.333 1241.16,937.5 1229.5,938C 1229,938.5 1228.5,939 1228,939.5C 1227.5,943.152 1227.33,946.818 1227.5,950.5C 1226.2,946.298 1226.2,941.964 1227.5,937.5C 1222.2,937.452 1222.2,936.118 1227.5,933.5C 1228.39,934.325 1228.72,935.325 1228.5,936.5C 1240.5,936.5 1252.5,936.5 1264.5,936.5 Z"/></g>
<g><path style="opacity:1" fill="#2374b9" d="M 1083.5,927.5 C 1097.17,927.5 1110.83,927.5 1124.5,927.5C 1124.5,930.5 1124.5,933.5 1124.5,936.5C 1112.83,936.333 1101.16,936.5 1089.5,937C 1088.07,937.465 1086.9,938.299 1086,939.5C 1085.33,949.5 1085.33,959.5 1086,969.5C 1086.71,971.081 1087.54,972.581 1088.5,974C 1096.83,974.667 1105.17,974.667 1113.5,974C 1114.33,973.167 1115.17,972.333 1116,971.5C 1116.5,965.175 1116.67,958.842 1116.5,952.5C 1120.5,952.5 1124.5,952.5 1128.5,952.5C 1128.67,960.174 1128.5,967.841 1128,975.5C 1126.5,978.333 1124.33,980.5 1121.5,982C 1108.93,983.627 1096.26,983.96 1083.5,983C 1079.25,981.802 1076.09,979.302 1074,975.5C 1073.33,962.167 1073.33,948.833 1074,935.5C 1076.69,932.241 1079.86,929.575 1083.5,927.5 Z"/></g>
<g><path style="opacity:1" fill="#2474b9" d="M 382.5,928.5 C 387.316,927.35 392.316,927.184 397.5,928C 402.493,934.159 407.826,939.992 413.5,945.5C 418.989,939.842 424.323,934.009 429.5,928C 434.5,927.333 439.5,927.333 444.5,928C 436.5,937 428.5,946 420.5,955C 428.462,964.631 436.796,973.964 445.5,983C 440.5,983.667 435.5,983.667 430.5,983C 424.989,976.657 419.323,970.491 413.5,964.5C 407.26,970.151 401.594,976.318 396.5,983C 391.5,983.667 386.5,983.667 381.5,983C 390.068,973.855 398.401,964.522 406.5,955C 398.6,945.999 390.6,937.166 382.5,928.5 Z"/></g>
<g><path style="opacity:1" fill="#2273b9" d="M 668.5,927.5 C 668.5,935.5 668.5,943.5 668.5,951.5C 679.346,951.828 690.013,951.494 700.5,950.5C 700.5,942.833 700.5,935.167 700.5,927.5C 704.5,927.5 708.5,927.5 712.5,927.5C 712.5,946.167 712.5,964.833 712.5,983.5C 708.5,983.5 704.5,983.5 700.5,983.5C 700.5,975.833 700.5,968.167 700.5,960.5C 690.013,959.506 679.346,959.172 668.5,959.5C 668.5,967.5 668.5,975.5 668.5,983.5C 664.5,983.5 660.5,983.5 656.5,983.5C 656.5,964.833 656.5,946.167 656.5,927.5C 660.5,927.5 664.5,927.5 668.5,927.5 Z"/></g>
<g><path style="opacity:1" fill="#99c0e1" d="M 668.5,927.5 C 669.492,934.982 669.825,942.648 669.5,950.5C 679.833,950.5 690.167,950.5 700.5,950.5C 690.013,951.494 679.346,951.828 668.5,951.5C 668.5,943.5 668.5,935.5 668.5,927.5 Z"/></g>
<g><path style="opacity:1" fill="#2575ba" d="M 977.5,969.5 C 977.56,970.043 977.893,970.376 978.5,970.5C 979.499,956.516 979.833,942.516 979.5,928.5C 982.833,928.5 986.167,928.5 989.5,928.5C 989.5,945.5 989.5,962.5 989.5,979.5C 988.977,981.708 987.644,983.208 985.5,984C 982.167,984.667 978.833,984.667 975.5,984C 965.63,970.427 956.13,956.594 947,942.5C 946.5,956.163 946.333,969.829 946.5,983.5C 942.5,983.5 938.5,983.5 934.5,983.5C 934.333,966.497 934.5,949.497 935,932.5C 935.833,930.333 937.333,928.833 939.5,928C 945.378,926.347 950.212,927.847 954,932.5C 961.844,944.862 969.677,957.195 977.5,969.5 Z"/></g>
<g><path style="opacity:1" fill="#74a7d2" d="M 700.5,960.5 C 690.167,960.5 679.833,960.5 669.5,960.5C 669.825,968.352 669.492,976.018 668.5,983.5C 668.5,975.5 668.5,967.5 668.5,959.5C 679.346,959.172 690.013,959.506 700.5,960.5 Z"/></g>
<g><path style="opacity:1" fill="#b2cde6" d="M 303.5,960.5 C 292.012,961.495 280.345,961.828 268.5,961.5C 268.5,964.5 268.5,967.5 268.5,970.5C 267.521,967.375 267.187,964.042 267.5,960.5C 279.5,960.5 291.5,960.5 303.5,960.5 Z"/></g>
<g><path style="opacity:1" fill="#2574b9" d="M 857.5,982.5 C 853.366,983.485 849.032,983.818 844.5,983.5C 842.549,979.267 840.883,974.934 839.5,970.5C 829.167,970.5 818.833,970.5 808.5,970.5C 807.273,975.282 805.273,979.615 802.5,983.5C 798.029,984.089 794.029,983.423 790.5,981.5C 798.957,964.921 807.123,948.254 815,931.5C 820.326,926.546 825.993,926.213 832,930.5C 840.785,947.737 849.285,965.07 857.5,982.5 Z"/></g>
<g><path style="opacity:1" fill="#f5f9fa" d="M 822.5,940.5 C 823.496,940.414 824.329,940.748 825,941.5C 828.128,948.083 830.961,954.75 833.5,961.5C 827.167,961.5 820.833,961.5 814.5,961.5C 816.757,954.402 819.424,947.402 822.5,940.5 Z"/></g>
<g><path style="opacity:1" fill="#2274b9" d="M 530.5,927.5 C 544.5,927.5 558.5,927.5 572.5,927.5C 572.5,930.5 572.5,933.5 572.5,936.5C 561.162,936.333 549.828,936.5 538.5,937C 537.069,937.465 535.903,938.299 535,939.5C 534.333,949.833 534.333,960.167 535,970.5C 535.374,971.416 535.874,972.25 536.5,973C 548.399,974.459 560.399,974.959 572.5,974.5C 572.5,977.5 572.5,980.5 572.5,983.5C 558.829,983.667 545.163,983.5 531.5,983C 527.725,981.558 524.892,979.058 523,975.5C 522.333,962.167 522.333,948.833 523,935.5C 524.955,932.283 527.455,929.617 530.5,927.5 Z"/></g>
<g><path style="opacity:1" fill="#5b94c8" d="M 305.5,974.5 C 306.479,977.625 306.813,980.958 306.5,984.5C 292.656,984.829 278.99,984.496 265.5,983.5C 278.833,983.5 292.167,983.5 305.5,983.5C 305.5,980.5 305.5,977.5 305.5,974.5 Z"/></g>
<g><path style="opacity:1" fill="#b3cde1" d="M 790.5,981.5 C 794.029,983.423 798.029,984.089 802.5,983.5C 798.366,984.485 794.032,984.818 789.5,984.5C 789.263,983.209 789.596,982.209 790.5,981.5 Z"/></g>
<g><path style="opacity:1" fill="#b8cfe1" d="M 857.5,982.5 C 858.043,982.56 858.376,982.893 858.5,983.5C 853.682,984.812 849.015,984.812 844.5,983.5C 849.032,983.818 853.366,983.485 857.5,982.5 Z"/></g>
<g><path style="opacity:1" fill="#5f97c7" d="M 1231.5,973.5 C 1242.83,973.5 1254.17,973.5 1265.5,973.5C 1265.5,977.167 1265.5,980.833 1265.5,984.5C 1251.66,984.829 1237.99,984.496 1224.5,983.5C 1237.83,983.5 1251.17,983.5 1264.5,983.5C 1264.5,980.5 1264.5,977.5 1264.5,974.5C 1253.32,974.828 1242.32,974.495 1231.5,973.5 Z"/></g>
</svg>
